<svg width="24" height="24" viewBox="0 0 24 24" fill="none" xmlns="http://www.w3.org/2000/svg">
<path d="M3.357 0.0329971C2.46667 0.0329971 1.6128 0.38668 0.983243 1.01624C0.353683 1.6458 5.95825e-07 2.49967 5.95825e-07 3.39C5.95825e-07 4.28033 0.353683 5.13419 0.983243 5.76375C1.6128 6.39331 2.46667 6.747 3.357 6.747C4.24716 6.74673 5.10077 6.39293 5.73011 5.7634C6.35945 5.13387 6.713 4.28016 6.713 3.39C6.713 2.49984 6.35945 1.64612 5.73011 1.01659C5.10077 0.387062 4.24716 0.0332623 3.357 0.0329971ZM12 0.0329971C11.11 0.0335274 10.2567 0.387444 9.62754 1.01695C8.99841 1.64645 8.645 2.50001 8.645 3.39C8.64527 4.27981 8.99879 5.13312 9.62789 5.7624C10.257 6.39169 11.1102 6.74547 12 6.746C12.8903 6.746 13.7442 6.39231 14.3738 5.76275C15.0033 5.13319 15.357 4.27933 15.357 3.389C15.3567 2.49884 15.0029 1.64523 14.3734 1.01589C13.7439 0.386543 12.8902 0.0329971 12 0.0329971ZM3.357 8.643C2.46667 8.643 1.6128 8.99668 0.983243 9.62624C0.353683 10.2558 5.95825e-07 11.1097 5.95825e-07 12C0.000530822 12.89 0.354448 13.7433 0.98395 14.3725C1.61345 15.0016 2.46702 15.355 3.357 15.355C4.24681 15.3547 5.10012 15.0012 5.7294 14.3721C6.35869 13.743 6.71247 12.8898 6.713 12C6.713 11.1098 6.35945 10.2561 5.73011 9.62659C5.10077 8.99706 4.24716 8.64326 3.357 8.643ZM12 8.643C11.11 8.64353 10.2567 8.99744 9.62754 9.62695C8.99841 10.2564 8.645 11.11 8.645 12C8.64553 12.8896 8.99917 13.7427 9.62824 14.3718C10.2573 15.0008 11.1104 15.3545 12 15.355C12.89 15.355 13.7435 15.0016 14.3731 14.3725C15.0026 13.7433 15.3565 12.89 15.357 12C15.357 11.1097 15.0033 10.2558 14.3738 9.62624C13.7442 8.99668 12.8903 8.643 12 8.643ZM20.643 8.643C19.7528 8.64326 18.8992 8.99706 18.2699 9.62659C17.6405 10.2561 17.287 11.1098 17.287 12C17.2875 12.8898 17.6413 13.743 18.2706 14.3721C18.8999 15.0012 19.7532 15.3547 20.643 15.355C21.533 15.355 22.3865 15.0016 23.0161 14.3725C23.6456 13.7433 23.9995 12.89 24 12C24 11.1097 23.6463 10.2558 23.0168 9.62624C22.3872 8.99668 21.5333 8.643 20.643 8.643ZM3.357 17.253C2.91598 17.253 2.47929 17.3399 2.07187 17.5087C1.66445 17.6776 1.29429 17.925 0.982536 18.2369C0.670783 18.5489 0.42355 18.9192 0.254963 19.3267C0.0863753 19.7342 -0.000262148 20.171 5.95825e-07 20.612C0.000265761 21.5022 0.354066 22.3558 0.983597 22.9851C1.61313 23.6145 2.46684 23.968 3.357 23.968C4.24699 23.9677 5.10044 23.6141 5.72976 22.9848C6.35907 22.3554 6.71274 21.502 6.713 20.612C6.713 19.7218 6.35945 18.8681 5.73011 18.2386C5.10077 17.6091 4.24716 17.2553 3.357 17.255V17.253ZM12 17.253C11.1098 17.2535 10.2563 17.6076 9.62718 18.2373C8.99803 18.867 8.64474 19.7208 8.645 20.611C8.64527 21.5008 8.99879 22.3541 9.62789 22.9834C10.257 23.6127 11.1102 23.9665 12 23.967C12.8902 23.967 13.7439 23.6135 14.3734 22.9841C15.0029 22.3548 15.3567 21.5012 15.357 20.611C15.357 19.7207 15.0033 18.8668 14.3738 18.2372C13.7442 17.6077 12.8903 17.253 12 17.253Z" fill="white"/>
</svg>
